<?xml version="1.0" encoding="iso-8859-1"?>
<!-- Generator: Adobe Illustrator 18.0.0, SVG Export Plug-In . SVG Version: 6.00 Build 0)  -->
<!DOCTYPE svg PUBLIC "-//W3C//DTD SVG 1.1//EN" "http://www.w3.org/Graphics/SVG/1.1/DTD/svg11.dtd">
<svg version="1.1" id="Capa_1" xmlns="http://www.w3.org/2000/svg" xmlns:xlink="http://www.w3.org/1999/xlink" x="0px" y="0px"
	 viewBox="0 0 297.5 297.5" style="enable-background:new 0 0 297.5 297.5;" xml:space="preserve">
<g>
	<g id="XMLID_30_">
		<g>
			<rect x="52.76" y="52.95" style="fill:#A97819;" width="61.69" height="12.83"/>
			<rect x="44.62" y="85.52" style="fill:#F5B543;" width="77.97" height="191.99"/>
			<rect x="183.05" y="52.95" style="fill:#B85627;" width="61.7" height="12.83"/>
			<rect x="174.91" y="85.52" style="fill:#CA4241;" width="77.979" height="191.99"/>
			<path d="M272.63,75.65v211.73c0,5.45-4.42,9.87-9.87,9.87h-97.72c-5.45,0-9.87-4.42-9.87-9.87V75.65
				c0-4.86,3.519-8.891,8.14-9.71V43.08c0-5.45,4.42-9.87,9.87-9.87h25.37L203.8,8.1c0.94-4.519,4.9-7.779,9.521-7.85
				c0.05,0,0.1,0,0.14,0c4.56,0,8.54,3.13,9.6,7.58l6.061,25.38h25.5c5.45,0,9.87,4.42,9.87,9.87v22.86
				C269.12,66.76,272.63,70.79,272.63,75.65z M252.89,277.51V85.52H174.91v191.99H252.89z M244.75,65.78V52.95h-61.7v12.83H244.75z"
				/>
			<path d="M142.34,75.65v211.73c0,5.45-4.42,9.87-9.87,9.87H34.74c-5.45,0-9.87-4.42-9.87-9.87V75.65c0-4.86,3.52-8.891,8.149-9.71
				V43.08c0-5.45,4.42-9.87,9.87-9.87h26.25L74.39,8.1c0.95-4.519,4.9-7.779,9.52-7.85c0.05,0,0.1,0,0.14,0
				c4.561,0,8.54,3.13,9.601,7.58l6.06,25.38h24.61c5.449,0,9.869,4.42,9.869,9.87v22.86C138.82,66.76,142.34,70.79,142.34,75.65z
				 M122.59,277.51V85.52H44.62v191.99H122.59z M114.45,65.78V52.95H52.76v12.83H114.45z"/>
		</g>
		<g>
		</g>
	</g>
</g>
<g>
</g>
<g>
</g>
<g>
</g>
<g>
</g>
<g>
</g>
<g>
</g>
<g>
</g>
<g>
</g>
<g>
</g>
<g>
</g>
<g>
</g>
<g>
</g>
<g>
</g>
<g>
</g>
<g>
</g>
</svg>
